PathFileType	4	(X/Y/Z)	D:\TRACE\spotREDO_2-26-24\spot_Both_Motion_1_9-v60.trc
DataRate	CameraRate	NumFrames	NumMarkers	Units	OrigDataRate	OrigDataStartFrame	OrigNumFrames
100.00	100.00	      34	9	mm	100.00	5251	      7000
Frame#	Time	front left toe			Front right toe			aft left toe			aft right toe			Arm			FL body			FR body			AL Body			AR Body			
		X1	Y1	Z1	X2	Y2	Z2	X3	Y3	Z3	X4	Y4	Z4	X5	Y5	Z5	X6	Y6	Z6	X7	Y7	Z7	X8	Y8	Z8	X9	Y9	Z9	

5251	52.500	-237.69609	158.84190	-471.44638	192.32208	33.84787	-404.95914	-247.13753	13.27082	165.93787	175.43019	15.70047	191.19569	-20.07156	747.52966	-764.77515	-45.28364	603.51312	-442.05661	108.99783	609.75433	-427.44421	-131.45865	549.56543	436.33627	7.68256	555.92242	451.32938	
5252	52.510	-236.08171	157.70985	-469.74384	191.80846	33.88588	-404.84192	-247.87239	13.23084	165.88727	174.85904	16.03619	191.20580	-19.92704	747.52350	-764.75830	-45.52206	603.26379	-442.22366	108.77810	609.67267	-427.47192	-132.25632	549.51727	436.20218	6.76505	555.67633	451.18890	
5253	52.520	-234.69629	157.11879	-467.64413	191.32837	33.85871	-404.35077	-248.89529	13.10417	165.80556	173.70032	15.92658	191.33315	-20.01951	747.57788	-764.57678	-45.78733	603.10596	-442.50165	108.43338	609.46069	-427.64807	-133.50926	549.25543	435.79465	5.45853	555.37347	450.83273	
5254	52.530	-233.53934	156.52510	-466.17578	190.58057	33.57230	-404.44495	-249.90936	12.89266	165.72775	172.81541	16.10757	191.30029	-20.50949	747.66907	-764.78638	-46.22113	603.00970	-442.79480	108.08624	609.15527	-427.88083	-134.79958	549.21210	435.40430	4.33919	555.53412	450.72214	
5255	52.540	-232.59955	156.49380	-464.91028	189.51865	33.30717	-404.38947	-250.56516	12.60050	165.86205	171.85121	16.12147	191.33327	-20.90648	747.68652	-764.71741	-46.88438	602.89722	-443.25027	107.55747	608.85370	-428.16846	-135.80023	549.19043	434.95407	3.01155	555.63446	450.50397	
5256	52.550	-231.53723	156.85587	-464.62122	188.75516	33.13478	-404.41168	-251.59244	12.78133	165.69455	170.98367	16.05156	191.36079	-21.30354	747.80896	-764.56219	-47.36702	602.79376	-443.57919	106.83202	608.84735	-428.42667	-137.17760	549.21313	434.53549	2.08179	555.42883	450.17438	
5257	52.560	-230.18405	157.01033	-463.99753	188.01492	33.02621	-404.63120	-252.53474	12.84201	165.57620	170.34274	16.37519	191.29335	-22.01723	747.87085	-764.53473	-48.57864	602.88519	-443.80927	105.95071	608.97382	-428.77435	-138.26259	548.99268	434.29654	0.75202	555.16125	449.64432	
5258	52.570	-228.54480	156.97005	-463.25040	187.23991	33.40479	-404.44351	-253.62288	12.68633	165.59892	169.15596	16.30922	191.26176	-22.56255	747.96277	-764.31323	-49.88389	603.06793	-444.17191	104.98621	609.21710	-428.92792	-139.44522	548.86053	433.78226	0.15694	555.11664	449.48172	
5259	52.580	-227.42836	156.20764	-462.41403	186.01340	33.49109	-404.58875	-254.26921	12.81806	165.57011	168.45828	16.30806	191.36546	-23.32134	748.19897	-764.09076	-50.73129	603.11688	-444.33789	103.79424	609.50409	-429.11273	-140.52876	548.73328	433.52734	-0.74723	554.89441	449.07623	
5260	52.590	-226.25293	154.00943	-461.18811	185.18323	33.39051	-404.50391	-254.99234	12.87470	165.67128	168.08279	16.43601	191.48140	-24.02931	748.40643	-763.96112	-51.92665	603.53339	-444.82306	102.46755	609.80566	-429.53079	-141.61043	548.54559	433.22650	-1.90437	554.75787	448.65945	
5261	52.600	-225.11436	149.89940	-460.29596	184.39635	33.57367	-404.68964	-256.03183	13.02759	165.63428	166.95290	16.18760	191.32530	-24.62840	748.63586	-763.94952	-53.51419	603.84723	-445.38589	100.92938	610.23450	-430.17288	-142.89828	548.40601	432.81088	-2.96644	554.50391	448.13681	
5262	52.610	-224.56621	143.70148	-459.67740	183.47504	33.74934	-404.83267	-256.54926	12.95825	165.60716	166.18190	16.07675	191.29633	-25.56119	748.78839	-763.95679	-55.25306	604.32568	-445.43665	99.24325	610.63928	-430.74304	-143.86212	548.44604	432.38916	-3.78223	554.50549	447.76788	
5263	52.620	-223.81804	135.18892	-459.42648	182.55051	33.75758	-405.05539	-257.26962	12.79446	165.60347	165.56790	16.09438	191.23232	-26.23765	749.02148	-763.81750	-57.10385	604.68231	-446.07510	97.41071	610.92194	-431.14456	-144.84311	548.34589	432.07385	-4.54878	554.59534	447.27304	
5264	52.630	-222.73994	124.81639	-459.26331	181.25620	33.88144	-405.36005	-258.58926	12.92579	165.56822	164.14494	16.30568	191.00323	-26.89264	749.07196	-764.05457	-58.95132	604.73993	-446.58597	95.53629	611.20135	-431.75348	-146.06516	548.08740	431.57553	-5.72937	554.38617	446.82172	
5265	52.640	-221.97594	113.17984	-458.63657	179.84819	34.05571	-405.48965	-259.36526	12.94278	165.43208	163.43900	16.42152	191.08524	-27.30574	749.12274	-764.13855	-60.99412	605.00830	-447.05164	93.64080	611.62402	-432.46747	-147.58513	548.11743	431.12338	-7.33883	554.32208	446.15964	
5266	52.650	-220.52518	101.18204	-457.65338	179.47862	34.09090	-405.33691	-260.31601	12.98379	165.51178	162.44002	16.19129	190.86864	-27.47879	749.16962	-763.92932	-62.95626	605.22253	-447.89670	91.43333	611.86914	-433.33209	-149.13026	547.88745	430.45953	-8.64512	554.44745	445.44836	
5267	52.660	-219.74338	90.18510	-456.79016	178.72220	33.99220	-405.66605	-261.40833	12.97142	165.39679	161.45586	16.17395	190.78818	-27.93294	749.19855	-764.03131	-65.07230	605.30292	-448.66107	89.40137	611.81476	-433.61148	-150.78619	547.77582	429.68329	-10.52364	554.48700	444.70135	
5268	52.670	-219.05478	79.06566	-455.40912	177.44975	33.90272	-405.33521	-262.07068	12.96039	165.54262	160.54863	16.03110	190.72163	-28.20085	749.07990	-764.16248	-66.69399	605.27533	-449.24020	87.26782	612.31042	-434.84735	-152.92450	547.60748	428.79456	-12.45617	554.10156	443.89566	
5269	52.680	-219.26431	68.55090	-454.05286	176.84273	33.90566	-405.26022	-262.95538	13.04413	165.53876	159.55145	16.37619	190.84029	-28.58322	749.12982	-764.32324	-69.09843	605.34399	-450.08472	85.37460	612.51025	-435.69250	-154.91350	547.21375	427.91449	-14.64962	554.27411	442.99463	
5270	52.690	-225.14256	58.64402	-448.17560	176.23462	33.47748	-405.14590	-263.78064	12.96828	165.43661	158.55745	16.43982	190.75005	-28.68743	749.28033	-764.31622	-70.88788	604.90198	-451.41458	83.55073	612.59845	-436.70737	-157.65874	546.56305	426.57364	-17.25653	553.82849	441.79819	
5271	52.700	-243.80089	44.26079	-433.52896	176.00887	32.96093	-404.88373	-265.01685	12.79037	164.90137	157.71820	16.76514	190.66174	-28.80516	749.54132	-764.05176	-72.62066	604.17499	-452.78247	82.12938	612.31403	-437.50693	-160.81799	545.92432	425.09937	-20.73077	553.54822	440.46237	
5272	52.710	-251.88803	37.29701	-432.53622	175.88066	32.58340	-404.55249	-265.85959	12.94308	164.83310	156.17598	16.74714	190.43942	-30.25410	750.36578	-762.95184	-74.22710	603.99042	-453.95627	80.35749	611.58844	-438.62796	-163.67952	545.65710	423.76987	-23.96071	553.75769	439.73483	
5273	52.720	-255.07573	38.76644	-432.08444	173.19485	32.65038	-405.33282	-267.75653	12.77362	166.09799	156.08551	16.07212	191.12779	-33.61899	751.48499	-761.24030	-76.17655	607.26898	-454.82138	78.41154	613.73193	-439.23975	-166.53996	544.47894	422.73251	-26.85891	552.10559	438.41718	
5274	52.730	-264.31143	42.70861	-428.02982	170.64732	34.48687	-406.13651	-269.29578	12.36797	166.21873	155.90155	15.37536	191.24332	-36.97825	752.68091	-760.02026	-77.67152	611.58716	-455.76523	76.61317	616.66608	-439.95499	-170.39861	543.02533	421.21838	-29.91880	548.29633	437.08176	
5275	52.740	-252.77431	41.08673	-425.66199	170.55646	34.12869	-405.20523	-270.01923	12.07090	166.21494	153.65556	16.72424	190.64432	-40.14442	755.05072	-758.34052	-79.57410	613.62836	-456.78281	74.79076	617.57928	-440.84991	-173.50085	543.96088	419.90939	-32.50066	547.98541	436.21326	
5276	52.750	-266.48126	42.90808	-426.36499	170.24831	33.62541	-405.69064	-272.74591	10.21653	165.27269	154.70853	21.85496	192.96901	-43.88954	757.84088	-756.04919	-81.79857	615.94757	-457.86761	72.72588	618.47797	-441.97220	-176.63525	544.61646	418.48105	-36.47306	548.16992	434.77365	
5277	52.760	-263.87543	41.39803	-425.88104	168.88434	34.16702	-406.02344	-275.71198	9.12551	165.39107	151.57968	29.52814	199.63820	-47.02640	759.28973	-753.38953	-84.68867	618.42761	-458.52100	69.99236	619.98193	-442.79108	-178.95480	542.98883	417.47858	-39.60460	546.07599	433.62006	
5278	52.770	-269.15469	41.01839	-426.54153	166.64023	34.72791	-406.85339	-275.55862	9.43138	165.24821	152.08786	40.78233	208.01497	-49.22665	759.71606	-752.14075	-87.53056	620.56738	-459.39169	66.97633	621.25366	-443.83356	-181.28090	542.91931	416.34427	-40.74200	543.67188	432.35046	
5279	52.780	-269.35001	40.52250	-427.11990	164.72232	34.99842	-407.03140	-276.02850	10.06830	165.37198	152.97095	53.67567	212.66096	-50.16702	759.69446	-751.06281	-90.80779	621.95081	-459.90771	63.67514	621.76166	-444.93414	-182.87315	543.62756	415.93481	-42.05029	543.57849	431.56592	
5280	52.790	-272.67712	40.99018	-427.08704	164.19389	34.92558	-407.08719	-277.01456	9.99077	165.48367	154.72188	67.15260	210.68329	-50.76507	759.98859	-750.71124	-94.25863	621.98254	-460.41907	60.46056	621.98999	-445.60449	-184.76004	544.45032	415.57388	-43.99497	544.49957	431.11761	
5281	52.800	-273.36566	40.37607	-426.84882	163.71286	35.05697	-407.03546	-277.27783	10.49973	165.54225	155.88771	81.13825	206.31976	-49.82036	759.67834	-750.69269	-97.43072	621.60510	-460.82050	57.12938	621.96112	-446.32211	-186.37160	545.59857	415.63977	-46.03037	546.14386	430.68930	
5282	52.810	-274.65137	39.62804	-426.49078	162.69376	34.88473	-407.31506	-277.83347	11.04446	165.38353	151.11438	93.52210	200.20145	-48.49398	759.07471	-751.01721	-100.36903	620.54761	-461.18277	54.17456	621.76825	-446.78537	-187.67043	546.38293	415.42984	-47.46472	547.79858	430.40613	
5283	52.820	-276.12665	39.15474	-426.42679	161.37646	34.59327	-407.82571	-279.00180	11.17363	165.47337	147.20319	103.33831	197.61938	-46.69789	758.05609	-750.89685	-104.45232	619.80792	-461.26028	50.91309	621.62775	-447.33069	-189.23933	547.15051	415.61880	-48.83715	549.19226	430.21204	
5284	52.830	-277.49167	38.84444	-426.49625	160.10730	34.97535	-407.67715	-279.59357	11.11648	165.45847	140.40199	110.82372	197.81302	-45.32674	757.65942	-751.00818	-107.21413	619.48767	-461.80396	47.86006	621.44061	-447.92517	-190.45296	547.45471	415.58139	-50.10434	549.67694	429.88519	
